<mxfile host="app.diagrams.net" modified="2021-06-10T11:22:37.776Z" agent="5.0 (Windows NT 10.0; Win64; x64) AppleWebKit/537.36 (KHTML, like Gecko) Chrome/91.0.4472.77 Safari/537.36" etag="LNqQc9hqOcGCXwPp4hZf" version="14.7.6" type="github">
  <diagram id="6a731a19-8d31-9384-78a2-239565b7b9f0" name="Page-1">
    <mxGraphModel dx="1185" dy="588" grid="1" gridSize="10" guides="1" tooltips="1" connect="1" arrows="1" fold="1" page="1" pageScale="1" pageWidth="1169" pageHeight="827" background="none" math="0" shadow="0">
      <root>
        <mxCell id="0" />
        <mxCell id="1" parent="0" />
        <mxCell id="2" value="开始" style="shape=mxgraph.flowchart.terminator;strokeWidth=2;gradientColor=none;gradientDirection=north;fontStyle=0;html=1;" parent="1" vertex="1">
          <mxGeometry x="260" y="60" width="120" height="30" as="geometry" />
        </mxCell>
        <mxCell id="4" value="" style="shape=mxgraph.flowchart.data;strokeWidth=2;gradientDirection=north;fontStyle=0;html=1;fillColor=#1681B5;strokeColor=#1478A8;fontColor=#330000;" parent="1" vertex="1">
          <mxGeometry x="240.5" y="510" width="159" height="80" as="geometry" />
        </mxCell>
        <mxCell id="5" value="遍历订单+排期+&lt;br&gt;对应投放量列表" style="shape=mxgraph.flowchart.data;strokeWidth=2;gradientDirection=north;fontStyle=0;html=1;strokeColor=#10739e;fillColor=#1681B5;" parent="1" vertex="1">
          <mxGeometry x="240.5" y="250" width="159" height="80" as="geometry" />
        </mxCell>
        <mxCell id="6" value="流量释放&lt;br&gt;成功" style="shape=mxgraph.flowchart.decision;strokeWidth=2;gradientDirection=north;fontStyle=0;html=1;strokeColor=#006EAF;fillColor=#1681B5;fontColor=#330000;" parent="1" vertex="1">
          <mxGeometry x="271" y="390" width="98" height="57" as="geometry" />
        </mxCell>
        <mxCell id="7" style="fontStyle=1;strokeColor=#003366;strokeWidth=1;html=1;" parent="1" source="2" edge="1">
          <mxGeometry relative="1" as="geometry">
            <mxPoint x="320" y="130" as="targetPoint" />
          </mxGeometry>
        </mxCell>
        <mxCell id="8" style="fontStyle=1;strokeColor=#003366;strokeWidth=1;html=1;exitX=0.5;exitY=1;exitDx=0;exitDy=0;" parent="1" source="noWKgFkb6oJTjKW2lA6C-58" target="5" edge="1">
          <mxGeometry relative="1" as="geometry">
            <mxPoint x="320" y="210" as="sourcePoint" />
          </mxGeometry>
        </mxCell>
        <mxCell id="9" style="entryX=0.5;entryY=0;entryPerimeter=0;fontStyle=1;strokeColor=#003366;strokeWidth=1;html=1;" parent="1" source="5" target="6" edge="1">
          <mxGeometry relative="1" as="geometry" />
        </mxCell>
        <mxCell id="10" value="" style="edgeStyle=elbowEdgeStyle;elbow=horizontal;entryX=0.5;entryY=0.91;entryPerimeter=0;exitX=1;exitY=0.5;exitPerimeter=0;fontStyle=1;strokeColor=#003366;strokeWidth=1;html=1;" parent="1" source="6" edge="1">
          <mxGeometry x="381" y="28.5" width="100" height="100" as="geometry">
            <mxPoint x="750" y="447" as="sourcePoint" />
            <mxPoint x="545" y="373.71000000000004" as="targetPoint" />
            <Array as="points">
              <mxPoint x="545" y="400" />
            </Array>
          </mxGeometry>
        </mxCell>
        <mxCell id="11" value="NO" style="text;fontStyle=0;html=1;strokeColor=none;gradientColor=none;fillColor=none;strokeWidth=2;" parent="1" vertex="1">
          <mxGeometry x="370" y="390" width="40" height="26" as="geometry" />
        </mxCell>
        <mxCell id="12" value="" style="edgeStyle=elbowEdgeStyle;elbow=horizontal;fontColor=#001933;fontStyle=1;strokeColor=#003366;strokeWidth=1;html=1;" parent="1" source="6" target="4" edge="1">
          <mxGeometry width="100" height="100" as="geometry">
            <mxPoint y="100" as="sourcePoint" />
            <mxPoint x="100" as="targetPoint" />
          </mxGeometry>
        </mxCell>
        <mxCell id="13" value="定向包校验" style="shape=mxgraph.flowchart.data;strokeWidth=2;gradientDirection=north;fontStyle=0;html=1;fillColor=#b1ddf0;strokeColor=#10739e;" parent="1" vertex="1">
          <mxGeometry x="240.5" y="640" width="159" height="80" as="geometry" />
        </mxCell>
        <mxCell id="14" value="yes" style="text;fontStyle=0;html=1;strokeColor=none;gradientColor=none;fillColor=none;strokeWidth=2;align=center;" parent="1" vertex="1">
          <mxGeometry x="320" y="447" width="40" height="26" as="geometry" />
        </mxCell>
        <mxCell id="15" value="联投广告位需要后续&lt;br&gt;考虑拆解" style="shape=mxgraph.flowchart.document;strokeWidth=2;gradientDirection=north;fontStyle=0;html=1;fillColor=#b1ddf0;strokeColor=#10739e;" parent="1" vertex="1">
          <mxGeometry x="480" y="515" width="140" height="70" as="geometry" />
        </mxCell>
        <mxCell id="16" value="" style="edgeStyle=elbowEdgeStyle;elbow=horizontal;exitX=0.905;exitY=0.5;exitPerimeter=0;fontStyle=1;strokeColor=#003366;strokeWidth=1;html=1;" parent="1" source="4" target="15" edge="1">
          <mxGeometry width="100" height="100" as="geometry">
            <mxPoint y="100" as="sourcePoint" />
            <mxPoint x="100" as="targetPoint" />
          </mxGeometry>
        </mxCell>
        <mxCell id="17" value="" style="edgeStyle=elbowEdgeStyle;elbow=horizontal;fontStyle=1;strokeColor=#003366;strokeWidth=1;html=1;" parent="1" source="4" target="13" edge="1">
          <mxGeometry width="100" height="100" as="geometry">
            <mxPoint y="100" as="sourcePoint" />
            <mxPoint x="100" as="targetPoint" />
          </mxGeometry>
        </mxCell>
        <mxCell id="19" value="" style="edgeStyle=elbowEdgeStyle;elbow=horizontal;exitX=0.905;exitY=0.5;exitPerimeter=0;fontStyle=1;strokeColor=#003366;strokeWidth=1;html=1;" parent="1" source="13" edge="1">
          <mxGeometry width="100" height="100" as="geometry">
            <mxPoint y="100" as="sourcePoint" />
            <mxPoint x="480" y="680" as="targetPoint" />
          </mxGeometry>
        </mxCell>
        <mxCell id="21" value="" style="edgeStyle=elbowEdgeStyle;elbow=horizontal;fontStyle=1;strokeColor=#003366;strokeWidth=1;html=1;entryX=0.5;entryY=0;entryDx=0;entryDy=0;" parent="1" source="13" edge="1">
          <mxGeometry width="100" height="100" as="geometry">
            <mxPoint y="100" as="sourcePoint" />
            <mxPoint x="320" y="800" as="targetPoint" />
          </mxGeometry>
        </mxCell>
        <mxCell id="24" value="锁量成功" style="shape=mxgraph.flowchart.decision;strokeWidth=2;gradientDirection=north;fontStyle=0;html=1;strokeColor=#006EAF;fillColor=#1681B5;fontColor=#330000;" parent="1" vertex="1">
          <mxGeometry x="260" y="960" width="119" height="78.5" as="geometry" />
        </mxCell>
        <mxCell id="25" value="" style="edgeStyle=elbowEdgeStyle;elbow=horizontal;exitX=0.5;exitY=1;exitPerimeter=0;fontStyle=1;strokeColor=#003366;strokeWidth=1;html=1;exitDx=0;exitDy=0;" parent="1" source="noWKgFkb6oJTjKW2lA6C-62" target="24" edge="1">
          <mxGeometry x="-15" y="-1" width="100" height="100" as="geometry">
            <mxPoint x="305" y="1000" as="sourcePoint" />
            <mxPoint x="85" y="-1" as="targetPoint" />
          </mxGeometry>
        </mxCell>
        <mxCell id="27" value="yes" style="text;fontStyle=0;html=1;strokeColor=none;gradientColor=none;fillColor=none;strokeWidth=2;" parent="1" vertex="1">
          <mxGeometry x="290" y="1060" width="40" height="26" as="geometry" />
        </mxCell>
        <mxCell id="30" value="" style="edgeStyle=elbowEdgeStyle;elbow=horizontal;exitX=0.5;exitY=1;exitPerimeter=0;fontStyle=1;strokeColor=#003366;strokeWidth=1;html=1;entryX=0.5;entryY=0;entryDx=0;entryDy=0;entryPerimeter=0;" parent="1" source="24" target="noWKgFkb6oJTjKW2lA6C-71" edge="1">
          <mxGeometry x="-15" y="-1" width="100" height="100" as="geometry">
            <mxPoint x="-15" y="99" as="sourcePoint" />
            <mxPoint x="320" y="1141" as="targetPoint" />
          </mxGeometry>
        </mxCell>
        <mxCell id="45" value="" style="edgeStyle=elbowEdgeStyle;elbow=horizontal;fontStyle=1;strokeColor=#003366;strokeWidth=1;html=1;exitX=0;exitY=0.5;exitDx=0;exitDy=0;exitPerimeter=0;entryX=0.5;entryY=1;entryDx=0;entryDy=0;" parent="1" source="24" target="noWKgFkb6oJTjKW2lA6C-64" edge="1">
          <mxGeometry x="-15" y="-1" width="100" height="100" as="geometry">
            <mxPoint x="240" y="1118" as="sourcePoint" />
            <mxPoint x="50" y="890" as="targetPoint" />
            <Array as="points">
              <mxPoint x="110" y="940" />
              <mxPoint x="150" y="1130" />
              <mxPoint x="50" y="1320" />
            </Array>
          </mxGeometry>
        </mxCell>
        <mxCell id="46" value="no" style="text;fontStyle=0;html=1;strokeColor=none;gradientColor=none;fillColor=none;strokeWidth=2;" parent="1" vertex="1">
          <mxGeometry x="200.5" y="970" width="40" height="26" as="geometry" />
        </mxCell>
        <mxCell id="52" value="" style="edgeStyle=elbowEdgeStyle;elbow=horizontal;entryX=0.905;entryY=0.5;entryPerimeter=0;fontStyle=1;strokeColor=#003366;strokeWidth=1;html=1;" parent="1" target="5" edge="1">
          <mxGeometry width="100" height="100" as="geometry">
            <mxPoint x="545" y="310" as="sourcePoint" />
            <mxPoint x="100" as="targetPoint" />
            <Array as="points">
              <mxPoint x="545" y="300" />
            </Array>
          </mxGeometry>
        </mxCell>
        <mxCell id="noWKgFkb6oJTjKW2lA6C-56" value="提示流量释放失败&lt;br&gt;重试" style="shape=parallelogram;perimeter=parallelogramPerimeter;whiteSpace=wrap;html=1;fixedSize=1;strokeWidth=2;fillColor=#f8cecc;strokeColor=#b85450;" parent="1" vertex="1">
          <mxGeometry x="480" y="310" width="120" height="60" as="geometry" />
        </mxCell>
        <mxCell id="noWKgFkb6oJTjKW2lA6C-58" value="点击修改流量按钮" style="rounded=0;whiteSpace=wrap;html=1;strokeWidth=2;fillColor=#1681B5;" parent="1" vertex="1">
          <mxGeometry x="260" y="130" width="120" height="60" as="geometry" />
        </mxCell>
        <mxCell id="noWKgFkb6oJTjKW2lA6C-59" value="避免非品牌广告支持定向维度出现" style="rounded=0;whiteSpace=wrap;html=1;strokeWidth=2;fillColor=#b1ddf0;strokeColor=#10739e;" parent="1" vertex="1">
          <mxGeometry x="480" y="650" width="120" height="60" as="geometry" />
        </mxCell>
        <mxCell id="noWKgFkb6oJTjKW2lA6C-62" value="组装算法锁量接口&lt;br&gt;请求对象(订单整体)" style="shape=mxgraph.flowchart.data;strokeWidth=2;gradientDirection=north;fontStyle=0;html=1;fillColor=#b1ddf0;strokeColor=#10739e;" parent="1" vertex="1">
          <mxGeometry x="240.5" y="800" width="159" height="80" as="geometry" />
        </mxCell>
        <mxCell id="noWKgFkb6oJTjKW2lA6C-66" style="edgeStyle=elbowEdgeStyle;rounded=1;orthogonalLoop=1;jettySize=auto;html=1;entryX=0.095;entryY=0.5;entryDx=0;entryDy=0;entryPerimeter=0;" parent="1" source="noWKgFkb6oJTjKW2lA6C-64" target="5" edge="1">
          <mxGeometry relative="1" as="geometry">
            <Array as="points">
              <mxPoint x="110" y="490" />
            </Array>
          </mxGeometry>
        </mxCell>
        <mxCell id="noWKgFkb6oJTjKW2lA6C-64" value="下单人员修改投放量" style="rounded=0;whiteSpace=wrap;html=1;strokeWidth=2;fillColor=#f8cecc;strokeColor=#b85450;" parent="1" vertex="1">
          <mxGeometry x="50" y="690" width="120" height="60" as="geometry" />
        </mxCell>
        <mxCell id="noWKgFkb6oJTjKW2lA6C-73" style="edgeStyle=elbowEdgeStyle;rounded=1;orthogonalLoop=1;jettySize=auto;html=1;entryX=0.5;entryY=0;entryDx=0;entryDy=0;entryPerimeter=0;" parent="1" source="noWKgFkb6oJTjKW2lA6C-71" target="noWKgFkb6oJTjKW2lA6C-72" edge="1">
          <mxGeometry relative="1" as="geometry" />
        </mxCell>
        <mxCell id="noWKgFkb6oJTjKW2lA6C-71" value="持久化订单+排期+&lt;br&gt;投放量的锁定量&lt;br&gt;以及锁量状态" style="shape=mxgraph.flowchart.data;strokeWidth=2;gradientDirection=north;fontStyle=0;html=1;fillColor=#d5e8d4;strokeColor=#82b366;" parent="1" vertex="1">
          <mxGeometry x="240.5" y="1120" width="159" height="80" as="geometry" />
        </mxCell>
        <mxCell id="noWKgFkb6oJTjKW2lA6C-72" value="锁量结束" style="shape=mxgraph.flowchart.terminator;strokeWidth=2;gradientColor=none;gradientDirection=north;fontStyle=0;html=1;" parent="1" vertex="1">
          <mxGeometry x="259" y="1270" width="120" height="30" as="geometry" />
        </mxCell>
        <mxCell id="noWKgFkb6oJTjKW2lA6C-76" value="避免非品牌广告支持定向维度出现" style="rounded=0;whiteSpace=wrap;html=1;strokeWidth=2;strokeColor=#006EAF;fillColor=#1681B5;fontColor=#330000;" parent="1" vertex="1">
          <mxGeometry x="479.5" y="650" width="120" height="60" as="geometry" />
        </mxCell>
        <mxCell id="noWKgFkb6oJTjKW2lA6C-77" value="定向包校验" style="shape=mxgraph.flowchart.data;strokeWidth=2;gradientDirection=north;fontStyle=0;html=1;strokeColor=#006EAF;fillColor=#1681B5;fontColor=#330000;" parent="1" vertex="1">
          <mxGeometry x="240" y="640" width="159" height="80" as="geometry" />
        </mxCell>
        <mxCell id="noWKgFkb6oJTjKW2lA6C-78" value="组装算法锁量接口&lt;br&gt;请求对象(订单整体)" style="shape=mxgraph.flowchart.data;strokeWidth=2;gradientDirection=north;fontStyle=0;html=1;strokeColor=#006EAF;fillColor=#1681B5;fontColor=#330000;" parent="1" vertex="1">
          <mxGeometry x="240" y="800" width="159" height="80" as="geometry" />
        </mxCell>
        <mxCell id="noWKgFkb6oJTjKW2lA6C-79" value="联投广告位需要后续&lt;br&gt;考虑拆解" style="shape=mxgraph.flowchart.document;strokeWidth=2;gradientDirection=north;fontStyle=0;html=1;strokeColor=#006EAF;fillColor=#1681B5;fontColor=#330000;" parent="1" vertex="1">
          <mxGeometry x="479.5" y="515" width="140" height="70" as="geometry" />
        </mxCell>
        <mxCell id="iLalV0UGRLuFDr469e8n-53" value="联投广告位拆解&lt;br&gt;(暂不支持)" style="shape=mxgraph.flowchart.data;strokeWidth=2;gradientDirection=north;fontStyle=0;html=1;fillColor=#fff2cc;strokeColor=#d6b656;" vertex="1" parent="1">
          <mxGeometry x="240.5" y="510" width="159" height="80" as="geometry" />
        </mxCell>
        <mxCell id="iLalV0UGRLuFDr469e8n-54" value="遍历订单+排期+&lt;br&gt;对应投放量列表" style="shape=mxgraph.flowchart.data;strokeWidth=2;gradientDirection=north;fontStyle=0;html=1;strokeColor=#10739e;fillColor=#1681B5;" vertex="1" parent="1">
          <mxGeometry x="240.5" y="250" width="159" height="80" as="geometry" />
        </mxCell>
        <mxCell id="iLalV0UGRLuFDr469e8n-55" value="存在不支持&lt;br&gt;预估广告位" style="shape=mxgraph.flowchart.decision;strokeWidth=2;gradientDirection=north;fontStyle=0;html=1;strokeColor=#006EAF;fontColor=#ffffff;fillColor=#1681B5;" vertex="1" parent="1">
          <mxGeometry x="271" y="390" width="98" height="57" as="geometry" />
        </mxCell>
        <mxCell id="iLalV0UGRLuFDr469e8n-56" style="entryX=0.5;entryY=0;entryPerimeter=0;fontStyle=1;strokeColor=#003366;strokeWidth=1;html=1;" edge="1" parent="1" source="iLalV0UGRLuFDr469e8n-54" target="iLalV0UGRLuFDr469e8n-55">
          <mxGeometry relative="1" as="geometry" />
        </mxCell>
        <mxCell id="iLalV0UGRLuFDr469e8n-57" value="" style="edgeStyle=elbowEdgeStyle;elbow=horizontal;entryX=0.5;entryY=0.91;entryPerimeter=0;exitX=1;exitY=0.5;exitPerimeter=0;fontStyle=1;strokeColor=#003366;strokeWidth=1;html=1;" edge="1" parent="1" source="iLalV0UGRLuFDr469e8n-55">
          <mxGeometry x="381" y="28.5" width="100" height="100" as="geometry">
            <mxPoint x="750" y="447" as="sourcePoint" />
            <mxPoint x="545" y="373.71000000000004" as="targetPoint" />
            <Array as="points">
              <mxPoint x="545" y="400" />
            </Array>
          </mxGeometry>
        </mxCell>
        <mxCell id="iLalV0UGRLuFDr469e8n-59" value="" style="edgeStyle=elbowEdgeStyle;elbow=horizontal;fontColor=#001933;fontStyle=1;strokeColor=#003366;strokeWidth=1;html=1;" edge="1" parent="1" source="iLalV0UGRLuFDr469e8n-55" target="iLalV0UGRLuFDr469e8n-53">
          <mxGeometry width="100" height="100" as="geometry">
            <mxPoint y="100" as="sourcePoint" />
            <mxPoint x="100" as="targetPoint" />
          </mxGeometry>
        </mxCell>
        <mxCell id="iLalV0UGRLuFDr469e8n-60" value="定向包校验" style="shape=mxgraph.flowchart.data;strokeWidth=2;gradientDirection=north;fontStyle=0;html=1;fillColor=#b1ddf0;strokeColor=#10739e;" vertex="1" parent="1">
          <mxGeometry x="240.5" y="640" width="159" height="80" as="geometry" />
        </mxCell>
        <mxCell id="iLalV0UGRLuFDr469e8n-62" value="联投广告位需要后续&lt;br&gt;考虑拆解" style="shape=mxgraph.flowchart.document;strokeWidth=2;gradientDirection=north;fontStyle=0;html=1;fillColor=#b1ddf0;strokeColor=#10739e;" vertex="1" parent="1">
          <mxGeometry x="480" y="515" width="140" height="70" as="geometry" />
        </mxCell>
        <mxCell id="iLalV0UGRLuFDr469e8n-63" value="" style="edgeStyle=elbowEdgeStyle;elbow=horizontal;exitX=0.905;exitY=0.5;exitPerimeter=0;fontStyle=1;strokeColor=#003366;strokeWidth=1;html=1;" edge="1" parent="1" source="iLalV0UGRLuFDr469e8n-53" target="iLalV0UGRLuFDr469e8n-62">
          <mxGeometry width="100" height="100" as="geometry">
            <mxPoint y="100" as="sourcePoint" />
            <mxPoint x="100" as="targetPoint" />
          </mxGeometry>
        </mxCell>
        <mxCell id="iLalV0UGRLuFDr469e8n-64" value="" style="edgeStyle=elbowEdgeStyle;elbow=horizontal;fontStyle=1;strokeColor=#003366;strokeWidth=1;html=1;" edge="1" parent="1" source="iLalV0UGRLuFDr469e8n-53" target="iLalV0UGRLuFDr469e8n-60">
          <mxGeometry width="100" height="100" as="geometry">
            <mxPoint y="100" as="sourcePoint" />
            <mxPoint x="100" as="targetPoint" />
          </mxGeometry>
        </mxCell>
        <mxCell id="iLalV0UGRLuFDr469e8n-65" value="" style="edgeStyle=elbowEdgeStyle;elbow=horizontal;exitX=0.905;exitY=0.5;exitPerimeter=0;fontStyle=1;strokeColor=#003366;strokeWidth=1;html=1;" edge="1" parent="1" source="iLalV0UGRLuFDr469e8n-60">
          <mxGeometry width="100" height="100" as="geometry">
            <mxPoint y="100" as="sourcePoint" />
            <mxPoint x="480" y="680.0000000000002" as="targetPoint" />
          </mxGeometry>
        </mxCell>
        <mxCell id="iLalV0UGRLuFDr469e8n-66" value="" style="edgeStyle=elbowEdgeStyle;elbow=horizontal;fontStyle=1;strokeColor=#003366;strokeWidth=1;html=1;entryX=0.5;entryY=0;entryDx=0;entryDy=0;" edge="1" parent="1" source="iLalV0UGRLuFDr469e8n-60">
          <mxGeometry width="100" height="100" as="geometry">
            <mxPoint y="100" as="sourcePoint" />
            <mxPoint x="320" y="800.0000000000002" as="targetPoint" />
          </mxGeometry>
        </mxCell>
        <mxCell id="iLalV0UGRLuFDr469e8n-67" value="锁量成功" style="shape=mxgraph.flowchart.decision;strokeWidth=2;gradientDirection=north;fontStyle=0;html=1;strokeColor=#006EAF;fontColor=#ffffff;fillColor=#1681B5;" vertex="1" parent="1">
          <mxGeometry x="260" y="960" width="119" height="78.5" as="geometry" />
        </mxCell>
        <mxCell id="iLalV0UGRLuFDr469e8n-68" value="" style="edgeStyle=elbowEdgeStyle;elbow=horizontal;exitX=0.5;exitY=1;exitPerimeter=0;fontStyle=1;strokeColor=#003366;strokeWidth=1;html=1;exitDx=0;exitDy=0;" edge="1" parent="1" source="iLalV0UGRLuFDr469e8n-76" target="iLalV0UGRLuFDr469e8n-67">
          <mxGeometry x="-15" y="-1" width="100" height="100" as="geometry">
            <mxPoint x="305" y="1000" as="sourcePoint" />
            <mxPoint x="85" y="-1" as="targetPoint" />
          </mxGeometry>
        </mxCell>
        <mxCell id="iLalV0UGRLuFDr469e8n-69" value="yes" style="text;fontStyle=0;html=1;strokeColor=none;gradientColor=none;fillColor=none;strokeWidth=2;" vertex="1" parent="1">
          <mxGeometry x="290" y="1060" width="40" height="26" as="geometry" />
        </mxCell>
        <mxCell id="iLalV0UGRLuFDr469e8n-70" value="" style="edgeStyle=elbowEdgeStyle;elbow=horizontal;exitX=0.5;exitY=1;exitPerimeter=0;fontStyle=1;strokeColor=#003366;strokeWidth=1;html=1;entryX=0.5;entryY=0;entryDx=0;entryDy=0;entryPerimeter=0;" edge="1" parent="1" source="iLalV0UGRLuFDr469e8n-67" target="iLalV0UGRLuFDr469e8n-79">
          <mxGeometry x="-15" y="-1" width="100" height="100" as="geometry">
            <mxPoint x="-15" y="99" as="sourcePoint" />
            <mxPoint x="320" y="1141" as="targetPoint" />
          </mxGeometry>
        </mxCell>
        <mxCell id="iLalV0UGRLuFDr469e8n-71" value="" style="edgeStyle=elbowEdgeStyle;elbow=horizontal;fontStyle=1;strokeColor=#003366;strokeWidth=1;html=1;exitX=0;exitY=0.5;exitDx=0;exitDy=0;exitPerimeter=0;entryX=0.5;entryY=1;entryDx=0;entryDy=0;" edge="1" parent="1" source="iLalV0UGRLuFDr469e8n-67">
          <mxGeometry x="-15" y="-1" width="100" height="100" as="geometry">
            <mxPoint x="240" y="1118" as="sourcePoint" />
            <mxPoint x="110" y="750.0000000000002" as="targetPoint" />
            <Array as="points">
              <mxPoint x="110" y="940" />
              <mxPoint x="150" y="1130" />
              <mxPoint x="50" y="1320" />
            </Array>
          </mxGeometry>
        </mxCell>
        <mxCell id="iLalV0UGRLuFDr469e8n-72" value="no" style="text;fontStyle=0;html=1;strokeColor=none;gradientColor=none;fillColor=none;strokeWidth=2;" vertex="1" parent="1">
          <mxGeometry x="200.5" y="970" width="40" height="26" as="geometry" />
        </mxCell>
        <mxCell id="iLalV0UGRLuFDr469e8n-73" value="" style="edgeStyle=elbowEdgeStyle;elbow=horizontal;entryX=0.905;entryY=0.5;entryPerimeter=0;fontStyle=1;strokeColor=#003366;strokeWidth=1;html=1;" edge="1" parent="1" target="iLalV0UGRLuFDr469e8n-54">
          <mxGeometry width="100" height="100" as="geometry">
            <mxPoint x="545" y="310" as="sourcePoint" />
            <mxPoint x="100" as="targetPoint" />
            <Array as="points">
              <mxPoint x="545" y="300" />
            </Array>
          </mxGeometry>
        </mxCell>
        <mxCell id="iLalV0UGRLuFDr469e8n-74" value="剔除不支持锁量&lt;br&gt;的广告位排期" style="shape=parallelogram;perimeter=parallelogramPerimeter;whiteSpace=wrap;html=1;fixedSize=1;strokeWidth=2;fillColor=#f8cecc;strokeColor=#b85450;" vertex="1" parent="1">
          <mxGeometry x="480" y="310" width="120" height="60" as="geometry" />
        </mxCell>
        <mxCell id="iLalV0UGRLuFDr469e8n-75" value="避免非品牌广告支持定向维度出现" style="rounded=0;whiteSpace=wrap;html=1;strokeWidth=2;fillColor=#b1ddf0;strokeColor=#10739e;" vertex="1" parent="1">
          <mxGeometry x="480" y="650" width="120" height="60" as="geometry" />
        </mxCell>
        <mxCell id="iLalV0UGRLuFDr469e8n-76" value="组装算法锁量接口&lt;br&gt;请求对象(订单整体)" style="shape=mxgraph.flowchart.data;strokeWidth=2;gradientDirection=north;fontStyle=0;html=1;fillColor=#b1ddf0;strokeColor=#10739e;" vertex="1" parent="1">
          <mxGeometry x="240.5" y="800" width="159" height="80" as="geometry" />
        </mxCell>
        <mxCell id="iLalV0UGRLuFDr469e8n-77" style="edgeStyle=elbowEdgeStyle;rounded=1;orthogonalLoop=1;jettySize=auto;html=1;entryX=0.095;entryY=0.5;entryDx=0;entryDy=0;entryPerimeter=0;" edge="1" parent="1" target="iLalV0UGRLuFDr469e8n-54">
          <mxGeometry relative="1" as="geometry">
            <mxPoint x="110" y="690.0000000000002" as="sourcePoint" />
            <Array as="points">
              <mxPoint x="110" y="490" />
            </Array>
          </mxGeometry>
        </mxCell>
        <mxCell id="iLalV0UGRLuFDr469e8n-78" style="edgeStyle=elbowEdgeStyle;rounded=1;orthogonalLoop=1;jettySize=auto;html=1;entryX=0.5;entryY=0;entryDx=0;entryDy=0;entryPerimeter=0;" edge="1" parent="1" source="iLalV0UGRLuFDr469e8n-79" target="iLalV0UGRLuFDr469e8n-80">
          <mxGeometry relative="1" as="geometry" />
        </mxCell>
        <mxCell id="iLalV0UGRLuFDr469e8n-79" value="持久化订单+排期+&lt;br&gt;投放量的锁定量&lt;br&gt;以及锁量状态" style="shape=mxgraph.flowchart.data;strokeWidth=2;gradientDirection=north;fontStyle=0;html=1;fillColor=#d5e8d4;strokeColor=#82b366;" vertex="1" parent="1">
          <mxGeometry x="240.5" y="1120" width="159" height="80" as="geometry" />
        </mxCell>
        <mxCell id="iLalV0UGRLuFDr469e8n-80" value="锁量结束" style="shape=mxgraph.flowchart.terminator;strokeWidth=2;gradientColor=none;gradientDirection=north;fontStyle=0;html=1;" vertex="1" parent="1">
          <mxGeometry x="259" y="1270" width="120" height="30" as="geometry" />
        </mxCell>
        <mxCell id="iLalV0UGRLuFDr469e8n-81" value="避免非品牌广告支持定向维度出现" style="rounded=0;whiteSpace=wrap;html=1;strokeWidth=2;strokeColor=#006EAF;fontColor=#ffffff;fillColor=#1681B5;" vertex="1" parent="1">
          <mxGeometry x="479.5" y="650" width="120" height="60" as="geometry" />
        </mxCell>
        <mxCell id="iLalV0UGRLuFDr469e8n-82" value="定向包校验" style="shape=mxgraph.flowchart.data;strokeWidth=2;gradientDirection=north;fontStyle=0;html=1;strokeColor=#006EAF;fontColor=#ffffff;fillColor=#1681B5;" vertex="1" parent="1">
          <mxGeometry x="240" y="640" width="159" height="80" as="geometry" />
        </mxCell>
        <mxCell id="iLalV0UGRLuFDr469e8n-83" value="组装算法锁量接口&lt;br&gt;请求对象(订单整体)" style="shape=mxgraph.flowchart.data;strokeWidth=2;gradientDirection=north;fontStyle=0;html=1;strokeColor=#006EAF;fontColor=#ffffff;fillColor=#1681B5;" vertex="1" parent="1">
          <mxGeometry x="240" y="800" width="159" height="80" as="geometry" />
        </mxCell>
        <mxCell id="iLalV0UGRLuFDr469e8n-84" value="联投广告位需要后续&lt;br&gt;考虑拆解" style="shape=mxgraph.flowchart.document;strokeWidth=2;gradientDirection=north;fontStyle=0;html=1;strokeColor=#006EAF;fontColor=#ffffff;fillColor=#1681B5;" vertex="1" parent="1">
          <mxGeometry x="479.5" y="515" width="140" height="70" as="geometry" />
        </mxCell>
      </root>
    </mxGraphModel>
  </diagram>
</mxfile>
